<?xml version="1.0" standalone="no"?><!DOCTYPE svg PUBLIC "-//W3C//DTD SVG 1.1//EN" "http://www.w3.org/Graphics/SVG/1.1/DTD/svg11.dtd"><svg t="1592995953073" class="icon" viewBox="0 0 1024 1024" version="1.1" xmlns="http://www.w3.org/2000/svg" p-id="37236" width="24" height="24" xmlns:xlink="http://www.w3.org/1999/xlink"><defs><style type="text/css"></style></defs><path d="M848.212368 670.219511 716.12912 670.219511c-13.268188 0-24.01495 10.886955-24.01495 24.335245 0 13.428847 10.746762 24.335245 24.01495 24.335245l132.083248 0c13.268188 0 24.01495-10.886955 24.01495-24.335245S861.480556 670.219511 848.212368 670.219511zM608.060823 670.219511 475.977575 670.219511c-13.268188 0-24.01495 10.886955-24.01495 24.335245 0 13.428847 10.746762 24.335245 24.01495 24.335245l132.083248 0c13.268188 0 24.01495-10.886955 24.01495-24.335245S621.329011 670.219511 608.060823 670.219511zM343.893304 670.219511 211.810057 670.219511c-13.268188 0-24.01495 10.886955-24.01495 24.335245 0 13.428847 10.746762 24.335245 24.01495 24.335245L343.893304 718.890001c13.268188 0 24.01495-10.886955 24.01495-24.335245S357.162516 670.219511 343.893304 670.219511zM848.212368 524.187577 716.12912 524.187577c-13.268188 0-24.01495 10.886955-24.01495 24.335245 0 13.427824 10.746762 24.335245 24.01495 24.335245l132.083248 0c13.268188 0 24.01495-10.886955 24.01495-24.335245C872.227318 535.074531 861.480556 524.187577 848.212368 524.187577zM608.060823 524.187577 475.977575 524.187577c-13.268188 0-24.01495 10.886955-24.01495 24.335245 0 13.427824 10.746762 24.335245 24.01495 24.335245l132.083248 0c13.268188 0 24.01495-10.886955 24.01495-24.335245C632.075773 535.074531 621.329011 524.187577 608.060823 524.187577zM343.893304 524.187577 211.810057 524.187577c-13.268188 0-24.01495 10.886955-24.01495 24.335245 0 13.427824 10.746762 24.335245 24.01495 24.335245L343.893304 572.858066c13.268188 0 24.01495-10.886955 24.01495-24.335245C367.909278 535.074531 357.162516 524.187577 343.893304 524.187577zM848.212368 378.135176 716.12912 378.135176c-13.268188 0-24.01495 10.886955-24.01495 24.335245 0 13.44829 10.746762 24.335245 24.01495 24.335245l132.083248 0c13.268188 0 24.01495-10.886955 24.01495-24.335245C872.227318 389.042597 861.480556 378.135176 848.212368 378.135176zM608.060823 378.135176 475.977575 378.135176c-13.268188 0-24.01495 10.886955-24.01495 24.335245 0 13.44829 10.746762 24.335245 24.01495 24.335245l132.083248 0c13.268188 0 24.01495-10.886955 24.01495-24.335245C632.075773 389.042597 621.329011 378.135176 608.060823 378.135176zM343.893304 378.135176 211.810057 378.135176c-13.268188 0-24.01495 10.886955-24.01495 24.335245 0 13.44829 10.746762 24.335245 24.01495 24.335245L343.893304 426.805666c13.268188 0 24.01495-10.886955 24.01495-24.335245C367.909278 389.042597 357.162516 378.135176 343.893304 378.135176z" p-id="37237" fill="#692fc2"></path><path d="M992.303091 280.693914l0 547.746132c0 13.428847-10.746762 24.335245-24.01495 24.335245-13.268188 0-24.01495-10.886955-24.01495-24.335245L944.273191 280.693914c0-40.105417-32.30066-72.925916-71.925123-72.925916L752.151545 207.767997l0 60.838623c0 13.44829-10.746762 24.335245-24.01495 24.335245-13.268188 0-24.01495-10.886955-24.01495-24.335245l0-60.838623L343.893304 207.767997l0 73.0262c0 13.428847-10.746762 24.335245-24.01495 24.335245-13.268188 0-24.01495-10.906397-24.01495-24.335245l0-73.0262L79.726809 207.767997l0 632.699989c0 40.285518 32.400944 73.145927 72.225975 73.145927l708.267059 0c13.268188 0 24.01495 10.886955 24.01495 24.335245 0 13.44829-10.746762 24.335245-24.01495 24.335245L151.952784 962.284403c-66.36243 0-120.255875-54.674227-120.255875-121.81744L31.696909 183.412286c0-13.428847 10.746762-24.335245 24.01495-24.335245l240.151545 0L295.863405 98.238418c0-13.44829 10.746762-24.335245 24.01495-24.335245 13.268188 0 24.01495 10.886955 24.01495 24.335245l0 60.838623 360.227318 0L704.120622 86.050842c0-13.44829 10.746762-24.335245 24.01495-24.335245C741.404784 61.715597 752.151545 72.602551 752.151545 86.050842l0 73.0262 120.195499 0C938.50993 159.077042 992.303091 213.71136 992.303091 280.693914z" p-id="37238" fill="#692fc2"></path></svg>