<?xml version="1.0" standalone="no"?><!DOCTYPE svg PUBLIC "-//W3C//DTD SVG 1.1//EN" "http://www.w3.org/Graphics/SVG/1.1/DTD/svg11.dtd"><svg t="1592995663475" class="icon" viewBox="0 0 1024 1024" version="1.1" xmlns="http://www.w3.org/2000/svg" p-id="34616" width="24" height="24" xmlns:xlink="http://www.w3.org/1999/xlink"><defs><style type="text/css"></style></defs><path d="M849.454545 907.636364h-674.90909A58.251636 58.251636 0 0 1 116.363636 849.454545V430.708364h791.272728V849.454545c0 32.069818-26.088727 58.181818-58.181819 58.181819M174.545455 209.454545H232.727273v58.181819a34.909091 34.909091 0 1 0 69.818182 0V209.454545h418.90909v58.181819a34.909091 34.909091 0 1 0 69.818182 0V209.454545h58.181818c32.093091 0 58.181818 26.112 58.181819 58.181819v93.253818H116.363636V267.636364C116.363636 235.566545 142.452364 209.454545 174.545455 209.454545m674.90909-69.818181H791.272727V81.454545a34.909091 34.909091 0 1 0-69.818182 0V139.636364H302.545455V81.454545a34.909091 34.909091 0 1 0-69.818182 0V139.636364H174.545455A128.139636 128.139636 0 0 0 46.545455 267.636364v581.818181C46.545455 920.040727 103.982545 977.454545 174.545455 977.454545h674.90909c70.562909 0 128-57.413818 128-128v-581.818181C977.454545 197.050182 920.017455 139.636364 849.454545 139.636364M209.454545 605.090909h232.727273a34.909091 34.909091 0 1 0 0-69.818182H209.454545a34.909091 34.909091 0 1 0 0 69.818182m605.09091 93.090909H209.454545a34.909091 34.909091 0 1 0 0 69.818182h605.09091a34.909091 34.909091 0 1 0 0-69.818182" fill="#692fc2" p-id="34617"></path></svg>