<?xml version="1.0" standalone="no"?><!DOCTYPE svg PUBLIC "-//W3C//DTD SVG 1.1//EN" "http://www.w3.org/Graphics/SVG/1.1/DTD/svg11.dtd"><svg t="1593041302195" class="icon" viewBox="0 0 1024 1024" version="1.1" xmlns="http://www.w3.org/2000/svg" p-id="40257" width="24" height="24" xmlns:xlink="http://www.w3.org/1999/xlink"><defs><style type="text/css"></style></defs><path d="M803.648 179.776l-625.472 625.6c-30.016 29.952-26.304 44.416-15.104 55.616 11.2 11.2 25.6 14.848 55.744-15.104l625.408-625.536c30.016-29.952 28.928-47.104 17.664-58.368-11.136-11.136-28.352-12.16-58.24 17.792z" p-id="40258" fill="#8a8a8a"></path><path d="M1015.552 512.128a502.656 502.656 0 0 0-503.68-503.68 502.208 502.208 0 0 0-356.096 147.264 502.016 502.016 0 0 0-147.328 356.416 500.288 500.288 0 0 0 146.816 356.736 499.584 499.584 0 0 0 356.544 146.688c277.312-2.816 503.744-226.24 503.744-503.424z m-947.968 0a444.288 444.288 0 0 1 444.288-444.544c246.976 0 447.296 200.128 447.296 444.544 0 244.032-200.32 444.416-447.296 444.416a442.304 442.304 0 0 1-444.288-444.416z" p-id="40259" fill="#8a8a8a"></path></svg>