<?xml version="1.0" standalone="no"?><!DOCTYPE svg PUBLIC "-//W3C//DTD SVG 1.1//EN" "http://www.w3.org/Graphics/SVG/1.1/DTD/svg11.dtd"><svg t="1592995384739" class="icon" viewBox="0 0 1024 1024" version="1.1" xmlns="http://www.w3.org/2000/svg" p-id="32166" width="24" height="24" xmlns:xlink="http://www.w3.org/1999/xlink"><defs><style type="text/css"></style></defs><path d="M512 15.147929C237.596178 15.147929 15.147929 237.596178 15.147929 512 15.147929 786.403822 237.596178 1008.85207 512 1008.85207 753.949359 1008.85207 959.556929 834.720477 1001.237325 599.108919 1003.176241 588.14858 1004.748832 577.104295 1005.950555 565.989614 1007.389418 552.681622 997.767587 540.726932 984.459595 539.288068 971.1516 537.849204 959.196912 547.471035 957.758048 560.779028 956.673455 570.81037 955.25442 580.776255 953.505081 590.66494 915.903569 803.219328 730.336118 960.378699 512 960.378699 264.367283 960.378699 63.621302 759.632717 63.621302 512 63.621302 264.367283 264.367283 63.621302 512 63.621302 692.540089 63.621302 853.297857 171.303651 923.740292 334.175772 929.053881 346.461485 943.320936 352.113508 955.60665 346.799919 967.892364 341.48633 973.544389 327.219275 968.230798 314.933561 890.18049 134.471036 712.044363 15.147929 512 15.147929ZM945.23443 345.905095 969.471116 321.668407 718.011835 321.668407C704.626282 321.668407 693.775147 332.519542 693.775147 345.905095 693.775147 359.290646 704.626282 370.141781 718.011835 370.141781L969.471116 370.141781C982.856669 370.141781 993.707804 359.290646 993.707804 345.905095L993.707804 78.730923C993.707804 65.345371 982.856669 54.494237 969.471116 54.494237 956.085565 54.494237 945.23443 65.345371 945.23443 78.730923L945.23443 345.905095Z" p-id="32167" fill="#246fe0"></path></svg>