<?xml version="1.0" standalone="no"?><!DOCTYPE svg PUBLIC "-//W3C//DTD SVG 1.1//EN" "http://www.w3.org/Graphics/SVG/1.1/DTD/svg11.dtd"><svg t="1593042547883" class="icon" viewBox="0 0 1024 1024" version="1.1" xmlns="http://www.w3.org/2000/svg" p-id="41889" width="18" height="18" xmlns:xlink="http://www.w3.org/1999/xlink"><defs><style type="text/css"></style></defs><path d="M583.68 302.016a25.6 25.6 0 0 1 18.112 7.488l184.32 184.384a25.6 25.6 0 0 1 0 36.224l-184.32 184.32a25.6 25.6 0 0 1-36.224-36.224l166.272-166.272-166.272-166.272a25.6 25.6 0 0 1 18.112-43.712z" p-id="41890" fill="#8a8a8a"></path><path d="M256 486.4h512a25.6 25.6 0 1 1 0 51.2H256a25.6 25.6 0 1 1 0-51.2z" p-id="41891" fill="#8a8a8a"></path><path d="M512 25.6c268.16 0 486.4 218.176 486.4 486.4s-218.176 486.4-486.4 486.4S25.6 780.224 25.6 512 243.776 25.6 512 25.6z m0 921.6c240 0 435.2-195.264 435.2-435.2S752 76.8 512 76.8C272.064 76.8 76.8 272 76.8 512s195.264 435.2 435.2 435.2z" p-id="41892" fill="#8a8a8a"></path></svg>